nColumns=28
nRows=62
DataType=double
version=3
OpenSimVersion=4.1
endheader
time	ground_force_1_vx	ground_force_1_vy	ground_force_1_vz	ground_force_1_px	ground_force_1_py	ground_force_1_pz	ground_force_1_mx	ground_force_1_my	ground_force_1_mz	ground_force_2_vx	ground_force_2_vy	ground_force_2_vz	ground_force_2_px	ground_force_2_py	ground_force_2_pz	ground_force_2_mx	ground_force_2_my	ground_force_2_mz	ground_force_3_vx	ground_force_3_vy	ground_force_3_vz	ground_force_3_px	ground_force_3_py	ground_force_3_pz	ground_force_3_mx	ground_force_3_my	ground_force_3_mz
1.12	-22.2049	129.52	-24.921	-0.319129	0.006	-0.449313	0	-0.047441	0	-84.4328	199.287	51.3413	-0.287047	0.006	-0.766875	0	0.705987	0	0	0	0	0.00220509	0	0.000452156	0	0	0
1.13	-58.1607	785.985	-81.3618	-0.299473	0.006	-0.452795	0	-1.44298	0	-168.746	746.507	48.3763	-0.285519	0.006	-0.756302	0	0.552977	0	0	0	0	0.00220509	0	0.000452156	0	0	0
1.14	-69.6609	1050.51	-31.7841	-0.290052	0.006	-0.457997	0	-2.3058	0	-97.9503	787.658	-76.8203	-0.283346	0.006	-0.744653	0	1.63161	0	0	0	0	0.00220509	0	0.000452156	0	0	0
1.15	-109.836	580.01	35.6359	-0.276828	0.006	-0.462618	0	-0.148133	0	-136.808	540.684	-17.4113	-0.252589	0.006	-0.750619	0	4.4389	0	0	0	0	0.00220509	0	0.000452156	0	0	0
1.16	-157.19	282.159	-1.838	-0.226082	0.006	-0.45273	0	-0.927597	0	-204.778	393.156	42.1288	-0.206076	0.006	-0.76478	0	1.54176	0	0	0	0	0.00220509	0	0.000452156	0	0	0
1.17	-205.488	249.648	-38.226	-0.183837	0.006	-0.441334	0	-0.594243	0	-226.718	380.03	65.5717	-0.185304	0.006	-0.770751	0	0.11253	0	0	0	0	0.00220509	0	0.000452156	0	0	0
1.18	-246.154	340.325	-33.0004	-0.180833	0.006	-0.44741	0	-0.924606	0	-234.728	427.7	70.6051	-0.182622	0.006	-0.76991	0	0.771305	0	0	0	0	0.00220509	0	0.000452156	0	0	0
1.19	-221.825	461.125	0.539107	-0.190779	0.006	-0.456103	0	-2.92107	0	-215.755	490.238	56.6416	-0.185758	0.006	-0.766114	0	3.00606	0	0	0	0	0.00220509	0	0.000452156	0	0	0
1.2	-150.93	572.371	16.4998	-0.202329	0.006	-0.459428	0	-4.07312	0	-165.346	570.638	36.6971	-0.195672	0.006	-0.76168	0	5.52082	0	0	0	0	0.00220509	0	0.000452156	0	0	0
1.21	-99.4099	636.724	-2.51398	-0.207386	0.006	-0.457381	0	-3.69482	0	-108.794	650.42	27.8489	-0.207469	0.006	-0.758932	0	6.76453	0	0	0	0	0.00220509	0	0.000452156	0	0	0
1.22	-81.3008	646.87	-18.4892	-0.206304	0.006	-0.454756	0	-3.26127	0	-69.0875	689.975	33.1563	-0.214423	0.006	-0.75832	0	6.89007	0	0	0	0	0.00220509	0	0.000452156	0	0	0
1.23	-75.1688	622.397	-9.62956	-0.201048	0.006	-0.454272	0	-4.04075	0	-58.3538	679.568	38.0626	-0.213624	0.006	-0.758651	0	7.14667	0	0	0	0	0.00220509	0	0.000452156	0	0	0
1.24	-83.42	583.137	0.980887	-0.191022	0.006	-0.453754	0	-5.35206	0	-68.1861	636.344	38.4414	-0.205864	0.006	-0.759479	0	7.47332	0	0	0	0	0.00220509	0	0.000452156	0	0	0
1.25	-98.5973	554.89	-1.63044	-0.180067	0.006	-0.452274	0	-5.77832	0	-84.037	595.906	36.3751	-0.196303	0.006	-0.760047	0	7.62801	0	0	0	0	0.00220509	0	0.000452156	0	0	0
1.26	-101.167	558.039	-8.4548	-0.174346	0.006	-0.451085	0	-5.38557	0	-90.7327	580.539	32.156	-0.189956	0.006	-0.759726	0	7.59279	0	0	0	0	0.00220509	0	0.000452156	0	0	0
1.27	-91.9962	584.305	-11.5304	-0.173306	0.006	-0.450896	0	-5.02661	0	-87.7586	587.784	26.7775	-0.18708	0.006	-0.758732	0	7.3552	0	0	0	0	0.00220509	0	0.000452156	0	0	0
1.28	-81.1906	610.786	-12.4926	-0.173195	0.006	-0.450836	0	-4.88523	0	-79.5168	600.652	20.7566	-0.185648	0.006	-0.757499	0	7.13099	0	0	0	0	0.00220509	0	0.000452156	0	0	0
1.29	-71.653	632.62	-12.3169	-0.173518	0.006	-0.450667	0	-4.91651	0	-67.2382	612.352	12.2468	-0.185339	0.006	-0.756104	0	7.32884	0	0	0	0	0.00220509	0	0.000452156	0	0	0
1.3	-62.2848	652.328	-12.3549	-0.174559	0.006	-0.450566	0	-4.96246	0	-55.5459	623.84	4.26617	-0.1856	0.006	-0.754847	0	7.78553	0	0	0	0	0.00220509	0	0.000452156	0	0	0
1.31	-54.5241	660.309	-13.0202	-0.175208	0.006	-0.450066	0	-4.9373	0	-48.9771	626.472	1.54613	-0.184999	0.006	-0.75423	0	7.99043	0	0	0	0	0.00220509	0	0.000452156	0	0	0
1.32	-50.2952	652.292	-12.4174	-0.174778	0.006	-0.449145	0	-4.98682	0	-47.0871	614.882	3.27102	-0.183038	0.006	-0.754269	0	7.93167	0	0	0	0	0.00220509	0	0.000452156	0	0	0
1.33	-47.4956	637.328	-11.4885	-0.174103	0.006	-0.448025	0	-5.0043	0	-47.2302	598.9	4.71367	-0.180786	0.006	-0.754401	0	8.04319	0	0	0	0	0.00220509	0	0.000452156	0	0	0
1.34	-41.4311	626.93	-12.9808	-0.174551	0.006	-0.446636	0	-4.77304	0	-44.9263	586.391	3.37547	-0.179703	0.006	-0.754152	0	8.40711	0	0	0	0	0.00220509	0	0.000452156	0	0	0
1.35	-30.7613	624.384	-17.2345	-0.176814	0.006	-0.445098	0	-4.27794	0	-37.7956	578.36	0.78063	-0.180064	0.006	-0.753645	0	8.70234	0	0	0	0	0.00220509	0	0.000452156	0	0	0
1.36	-17.9853	625.862	-21.67	-0.180251	0.006	-0.44396	0	-3.78563	0	-29.7217	575.019	1.29973	-0.181263	0.006	-0.753044	0	8.66315	0	0	0	0	0.00220509	0	0.000452156	0	0	0
1.37	-7.76638	625.113	-23.7078	-0.18344	0.006	-0.443244	0	-3.60626	0	-23.7517	573.692	4.53315	-0.182695	0.006	-0.752437	0	8.51337	0	0	0	0	0.00220509	0	0.000452156	0	0	0
1.38	-0.588003	617.904	-23.7762	-0.185312	0.006	-0.44323	0	-3.63965	0	-19.4263	570.167	5.11269	-0.183726	0.006	-0.751469	0	8.73692	0	0	0	0	0.00220509	0	0.000452156	0	0	0
1.39	4.13201	606.492	-22.894	-0.185246	0.006	-0.443893	0	-3.80768	0	-15.7066	566.15	2.32906	-0.184205	0.006	-0.75036	0	9.17607	0	0	0	0	0.00220509	0	0.000452156	0	0	0
1.4	3.84891	595.102	-21.2784	-0.182264	0.006	-0.444816	0	-4.12923	0	-13.6996	565.757	0.507859	-0.183439	0.006	-0.749947	0	9.39432	0	0	0	0	0.00220509	0	0.000452156	0	0	0
1.41	-1.84735	581.389	-20.5834	-0.176219	0.006	-0.445965	0	-4.50983	0	-14.2536	566.821	1.62321	-0.181289	0.006	-0.750221	0	9.21843	0	0	0	0	0.00220509	0	0.000452156	0	0	0
1.42	-9.07913	562.638	-21.3062	-0.168833	0.006	-0.447567	0	-4.85488	0	-14.7893	565.674	4.25026	-0.178704	0.006	-0.750755	0	8.65369	0	0	0	0	0.00220509	0	0.000452156	0	0	0
1.43	-14.1262	542.301	-21.5611	-0.161527	0.006	-0.449778	0	-5.16056	0	-13.7727	559.464	6.5034	-0.175912	0.006	-0.75136	0	7.98461	0	0	0	0	0.00220509	0	0.000452156	0	0	0
1.44	-15.1003	526.027	-18.7345	-0.155301	0.006	-0.452167	0	-5.52825	0	-11.792	548.784	7.36681	-0.173161	0.006	-0.751919	0	7.39625	0	0	0	0	0.00220509	0	0.000452156	0	0	0
1.45	-12.97	518.186	-13.0751	-0.150581	0.006	-0.454555	0	-5.98076	0	-11.5122	538.077	8.20496	-0.170479	0.006	-0.752417	0	6.76623	0	0	0	0	0.00220509	0	0.000452156	0	0	0
1.46	-9.28483	517.041	-7.90025	-0.146896	0.006	-0.456453	0	-6.29731	0	-12.929	529.563	10.3169	-0.167864	0.006	-0.753153	0	6.09513	0	0	0	0	0.00220509	0	0.000452156	0	0	0
1.47	-6.13053	517.933	-6.96182	-0.143764	0.006	-0.457733	0	-6.2543	0	-14.3927	522.515	13.8769	-0.165548	0.006	-0.75422	0	5.36046	0	0	0	0	0.00220509	0	0.000452156	0	0	0
1.48	-6.26196	519.344	-10.1734	-0.14077	0.006	-0.458215	0	-5.89865	0	-16.0945	516.472	18.3769	-0.163564	0.006	-0.755185	0	4.61977	0	0	0	0	0.00220509	0	0.000452156	0	0	0
1.49	-10.2719	520.471	-14.7125	-0.137879	0.006	-0.458295	0	-5.45538	0	-17.9789	511.98	22.8246	-0.16167	0.006	-0.755788	0	4.0002	0	0	0	0	0.00220509	0	0.000452156	0	0	0
1.5	-17.6823	520.886	-18.0174	-0.135008	0.006	-0.458405	0	-5.08156	0	-19.8496	508.692	26.3839	-0.160045	0.006	-0.75626	0	3.59895	0	0	0	0	0.00220509	0	0.000452156	0	0	0
1.51	-26.6467	520.626	-18.4724	-0.132232	0.006	-0.45867	0	-4.88138	0	-22.2168	506.064	28.4788	-0.158792	0.006	-0.75654	0	3.33599	0	0	0	0	0.00220509	0	0.000452156	0	0	0
1.52	-35.3941	519.554	-16.8423	-0.129805	0.006	-0.459092	0	-4.79286	0	-25.395	503.894	29.2738	-0.157573	0.006	-0.756695	0	3.19657	0	0	0	0	0.00220509	0	0.000452156	0	0	0
1.53	-43.7831	518.406	-14.7766	-0.127682	0.006	-0.459506	0	-4.76959	0	-29.1794	502.046	28.9927	-0.156306	0.006	-0.756769	0	3.14877	0	0	0	0	0.00220509	0	0.000452156	0	0	0
1.54	-51.747	517.719	-13.563	-0.125735	0.006	-0.459888	0	-4.69375	0	-33.6569	500.623	28.0414	-0.155217	0.006	-0.756608	0	3.05187	0	0	0	0	0.00220509	0	0.000452156	0	0	0
1.55	-59.2849	517.982	-13.6435	-0.124151	0.006	-0.459986	0	-4.56223	0	-39.4142	499.235	27.0391	-0.154294	0.006	-0.756337	0	2.90339	0	0	0	0	0.00220509	0	0.000452156	0	0	0
1.56	-66.5966	518.067	-14.8125	-0.122932	0.006	-0.459917	0	-4.3612	0	-46.2802	496.322	26.2428	-0.153508	0.006	-0.756158	0	2.68202	0	0	0	0	0.00220509	0	0.000452156	0	0	0
1.57	-73.651	515.766	-16.7833	-0.121891	0.006	-0.459591	0	-4.03435	0	-53.6052	489.816	25.3268	-0.152701	0.006	-0.756116	0	2.40842	0	0	0	0	0.00220509	0	0.000452156	0	0	0
1.58	-80.1491	507.997	-19.4311	-0.120759	0.006	-0.458682	0	-3.53872	0	-60.7799	476.423	25.0204	-0.15172	0.006	-0.756322	0	2.01923	0	0	0	0	0.00220509	0	0.000452156	0	0	0
1.59	-84.31	487.45	-21.6777	-0.119229	0.006	-0.457488	0	-2.84182	0	-65.8267	448.523	25.6159	-0.150473	0.006	-0.756968	0	1.47671	0	0	0	0	0.00220509	0	0.000452156	0	0	0
1.6	-80.8709	444.587	-21.9829	-0.117375	0.006	-0.455806	0	-2.02887	0	-63.0591	394.586	25.1823	-0.14845	0.006	-0.758145	0	0.953484	0	0	0	0	0.00220509	0	0.000452156	0	0	0
1.61	-64.3638	374.254	-19.3531	-0.115229	0.006	-0.453386	0	-1.25773	0	-45.4743	303.875	20.1689	-0.144933	0.006	-0.759295	0	0.787923	0	0	0	0	0.00220509	0	0.000452156	0	0	0
1.62	-34.3522	274.857	-13.5975	-0.112666	0.006	-0.450038	0	-0.829333	0	-16.6462	179.96	11.5801	-0.138212	0.006	-0.759088	0	0.876191	0	0	0	0	0.00220509	0	0.000452156	0	0	0
1.63	-0.681538	150.2	-6.02834	-0.108933	0.006	-0.446411	0	-0.622783	0	3.12756	59.0565	5.63612	-0.11881	0.006	-0.751192	0	0.713073	0	0	0	0	0.00220509	0	0.000452156	0	0	0
1.64	12.5766	40.405	-0.00590849	-0.0988799	0.006	-0.447244	0	-0.369902	0	0	0	0	0.00220509	0	0.000452156	0	0	0	0	0	0	0.00220509	0	0.000452156	0	0	0
1.65	0	0	0	0.00220509	0	0.000452156	0	0	0	0	0	0	0.00220509	0	0.000452156	0	0	0	0	0	0	0.00220509	0	0.000452156	0	0	0
1.66	0	0	0	0.00220509	0	0.000452156	0	0	0	0	0	0	0.00220509	0	0.000452156	0	0	0	0	0	0	0.00220509	0	0.000452156	0	0	0
1.67	0	0	0	0.00220509	0	0.000452156	0	0	0	0	0	0	0.00220509	0	0.000452156	0	0	0	0	0	0	0.00220509	0	0.000452156	0	0	0
1.68	0	0	0	0.00220509	0	0.000452156	0	0	0	0	0	0	0.00220509	0	0.000452156	0	0	0	0	0	0	0.00220509	0	0.000452156	0	0	0
1.69	0	0	0	0.00220509	0	0.000452156	0	0	0	0	0	0	0.00220509	0	0.000452156	0	0	0	0	0	0	0.00220509	0	0.000452156	0	0	0
1.7	0	0	0	0.00220509	0	0.000452156	0	0	0	0	0	0	0.00220509	0	0.000452156	0	0	0	0	0	0	0.00220509	0	0.000452156	0	0	0
1.71	0	0	0	0.00220509	0	0.000452156	0	0	0	0	0	0	0.00220509	0	0.000452156	0	0	0	0	0	0	0.00220509	0	0.000452156	0	0	0
1.72	0	0	0	0.00220509	0	0.000452156	0	0	0	0	0	0	0.00220509	0	0.000452156	0	0	0	0	0	0	0.00220509	0	0.000452156	0	0	0
1.73	0	0	0	0.00220509	0	0.000452156	0	0	0	0	0	0	0.00220509	0	0.000452156	0	0	0	0	0	0	0.00220509	0	0.000452156	0	0	0
